<svg width="90" height="66" viewBox="0 0 90 66" fill="none" xmlns="http://www.w3.org/2000/svg">
<path d="M69.5455 0C62.55 0 58.2955 1.36125 55.8409 2.51625C52.6909 0.948751 49.0909 0 45 0C40.9091 0 37.3091 0.948751 34.1591 2.51625C31.7045 1.36125 27.45 0 20.4545 0C8.18182 0 0 33 0 41.25C0 44.6738 5.4 47.8088 12.8455 49.0875C15.4636 58.3275 27.8182 65.3812 42.9545 66V48.345C40.5409 46.8188 36.8182 44.055 36.8182 41.25C36.8182 37.125 45 37.125 45 37.125C45 37.125 53.1818 37.125 53.1818 41.25C53.1818 44.055 49.4591 46.8188 47.0455 48.345V66C62.1818 65.3812 74.5364 58.3275 77.1545 49.0875C84.6 47.8088 90 44.6738 90 41.25C90 33 81.8182 0 69.5455 0ZM12.8864 40.7137C10.8409 40.2188 9.24545 39.6413 8.18182 39.1875C9.20455 27.7612 17.1818 9.9 20.6591 8.25C22.8682 8.25 24.5455 8.4975 26.0591 8.70375C17.4682 18.2325 14.0727 33.165 12.8864 40.7137ZM32.7273 33C31.6423 33 30.6018 32.5654 29.8346 31.7918C29.0674 31.0182 28.6364 29.969 28.6364 28.875C28.6364 26.6475 30.4773 24.75 32.7273 24.75C33.8122 24.75 34.8528 25.1846 35.62 25.9582C36.3872 26.7318 36.8182 27.781 36.8182 28.875C36.8182 31.185 34.9773 33 32.7273 33ZM57.2727 33C56.1877 33 55.1472 32.5654 54.38 31.7918C53.6128 31.0182 53.1818 29.969 53.1818 28.875C53.1818 26.6475 55.0227 24.75 57.2727 24.75C58.3577 24.75 59.3982 25.1846 60.1654 25.9582C60.9326 26.7318 61.3636 27.781 61.3636 28.875C61.3636 31.185 59.5227 33 57.2727 33ZM77.1136 40.7137C75.9273 33.165 72.5318 18.2325 63.9409 8.70375C65.4545 8.4975 67.1318 8.25 69.3409 8.25C72.8182 9.9 80.7955 27.7612 81.8182 39.1875C80.7955 39.6413 79.2 40.2188 77.1136 40.7137Z" fill="white"/>
</svg>
