<svg width="85" height="87" viewBox="0 0 85 87" fill="none" xmlns="http://www.w3.org/2000/svg">
<path d="M85 27.6818C81.6996 27.7587 78.4378 27.0074 75.5577 25.5068C73.2573 24.2794 70.6382 23.6637 67.9868 23.7273V19.7727C71.2873 19.6958 74.549 20.4472 77.4291 21.9477C79.7295 23.1752 82.3486 23.7908 85 23.7273M85 15.8182C82.3486 15.8817 79.7295 15.2661 77.4291 14.0386C74.549 12.5381 71.2873 11.7868 67.9868 11.8636V15.8182C70.6382 15.7546 73.2573 16.3703 75.5577 17.5977C78.4378 19.0983 81.6996 19.8496 85 19.7727M85 31.6364C82.3486 31.6999 79.7295 31.0843 77.4291 29.8568C74.549 28.3563 71.2873 27.6049 67.9868 27.6818V31.6364C70.6382 31.5728 73.2573 32.1884 75.5577 33.4159C78.4378 34.9165 81.6996 35.6678 85 35.5909M33.9605 42.4323C44.0041 40.6262 53.9414 38.3428 63.7336 35.5909V7.90909C63.7336 7.90909 36.0872 0 23.3273 0C17.647 0.0148658 12.1666 1.95085 7.9088 5.44667C3.65098 8.94248 0.906686 13.7593 0.188032 18.9982C-0.530621 24.2371 0.825471 29.5401 4.00324 33.9177C7.18101 38.2952 11.9633 41.4482 17.4578 42.7882L21.2007 67.2273H25.4539C25.624 69.1122 26.2764 70.9319 27.3566 72.5347C28.4368 74.1376 29.9136 75.477 31.6638 76.4414C33.637 77.5321 35.2757 79.076 36.4227 80.9249C37.5696 82.7738 38.1864 84.8657 38.2138 87H42.4671C42.4478 84.2757 41.694 81.5995 40.2748 79.216C38.8556 76.8326 36.8163 74.8181 34.3433 73.3568C31.366 71.1818 29.7072 69.7186 29.7072 67.2273H33.9605M23.3273 31.6364C21.2243 31.6364 19.1684 31.0565 17.4198 29.9702C15.6712 28.8839 14.3083 27.3398 13.5035 25.5333C12.6987 23.7269 12.4881 21.739 12.8984 19.8213C13.3087 17.9035 14.3214 16.1419 15.8085 14.7593C17.2956 13.3767 19.1902 12.4351 21.2529 12.0536C23.3155 11.6721 25.4535 11.8679 27.3965 12.6162C29.3394 13.3645 31.0001 14.6316 32.1685 16.2574C33.3369 17.8832 33.9605 19.7947 33.9605 21.75C33.9605 24.372 32.8402 26.8867 30.8461 28.7407C28.852 30.5948 26.1474 31.6364 23.3273 31.6364Z" fill="white"/>
</svg>
