<svg width="87" height="72" viewBox="0 0 87 72" fill="none" xmlns="http://www.w3.org/2000/svg">
<path d="M43.5 72L58 52.8C53.9722 49.8 48.9375 48 43.5 48C38.0625 48 33.0278 49.8 29 52.8L43.5 72ZM43.5 0C27.1875 0 12.1236 5.36 0 14.4L7.25 24C17.3194 16.48 29.8861 12 43.5 12C57.1139 12 69.6806 16.48 79.75 24L87 14.4C74.8764 5.36 59.8125 0 43.5 0ZM43.5 24C32.625 24 22.5958 27.56 14.5 33.6L21.75 43.2C27.7917 38.68 35.3236 36 43.5 36C51.6764 36 59.2083 38.68 65.25 43.2L72.5 33.6C64.4042 27.56 54.375 24 43.5 24Z" fill="white"/>
</svg>
