<svg width="70" height="65" viewBox="0 0 70 65" fill="none" xmlns="http://www.w3.org/2000/svg">
<path d="M5.832 46.7673C6.376 46.8313 6.8 47.0473 7.104 47.4153C7.424 47.7673 7.584 48.1993 7.584 48.7113V56.1273C7.584 56.2713 7.528 56.3993 7.416 56.5113C7.32 56.6073 7.2 56.6553 7.056 56.6553C6.912 56.6553 6.784 56.6073 6.672 56.5113C6.576 56.3993 6.528 56.2713 6.528 56.1273V48.7113C6.528 48.4073 6.424 48.1513 6.216 47.9433C6.008 47.7353 5.752 47.6313 5.448 47.6313H2.616V56.1273C2.616 56.2713 2.56 56.3993 2.448 56.5113C2.352 56.6073 2.232 56.6553 2.088 56.6553C1.944 56.6553 1.816 56.6073 1.704 56.5113C1.608 56.3993 1.56 56.2713 1.56 56.1273V40.3833C1.56 40.2393 1.608 40.1193 1.704 40.0233C1.816 39.9113 1.944 39.8553 2.088 39.8553C2.232 39.8553 2.352 39.9113 2.448 40.0233C2.56 40.1193 2.616 40.2393 2.616 40.3833V46.5753H4.296C4.568 46.5753 4.8 46.4713 4.992 46.2633C5.2 46.0553 5.304 45.8073 5.304 45.5193V42.6393C5.304 42.4953 5.352 42.3753 5.448 42.2793C5.56 42.1673 5.688 42.1113 5.832 42.1113C5.976 42.1113 6.096 42.1673 6.192 42.2793C6.304 42.3753 6.36 42.4953 6.36 42.6393V45.5193C6.36 45.9833 6.184 46.3993 5.832 46.7673ZM11.1891 40.5033C11.7651 39.9113 12.4371 39.6153 13.2051 39.6153C13.9731 39.6153 14.6371 39.9113 15.1971 40.5033C15.7731 41.0953 16.0611 41.8073 16.0611 42.6393V56.1273C16.0611 56.2713 16.0051 56.3993 15.8931 56.5113C15.7971 56.6073 15.6771 56.6553 15.5331 56.6553C15.3891 56.6553 15.2611 56.6073 15.1491 56.5113C15.0531 56.3993 15.0051 56.2713 15.0051 56.1273V50.3433H11.4051V56.1273C11.4051 56.2713 11.3491 56.3993 11.2371 56.5113C11.1411 56.6073 11.0211 56.6553 10.8771 56.6553C10.7331 56.6553 10.6051 56.6073 10.4931 56.5113C10.3971 56.3993 10.3491 56.2713 10.3491 56.1273V42.6393C10.3491 41.8073 10.6291 41.0953 11.1891 40.5033ZM15.0051 47.3433V42.6393C15.0051 42.0793 14.8291 41.6153 14.4771 41.2473C14.1411 40.8633 13.7171 40.6713 13.2051 40.6713C12.6931 40.6713 12.2611 40.8633 11.9091 41.2473C11.5731 41.6153 11.4051 42.0793 11.4051 42.6393V47.3433H15.0051ZM15.0051 49.2873V48.3993H11.4051V49.2873H15.0051ZM23.457 46.7673C24.001 46.8313 24.425 47.0473 24.729 47.4153C25.049 47.7673 25.209 48.1993 25.209 48.7113V56.1273C25.209 56.2713 25.153 56.3993 25.041 56.5113C24.945 56.6073 24.825 56.6553 24.681 56.6553C24.537 56.6553 24.409 56.6073 24.297 56.5113C24.201 56.3993 24.153 56.2713 24.153 56.1273V48.7113C24.153 48.4073 24.049 48.1513 23.841 47.9433C23.633 47.7353 23.377 47.6313 23.073 47.6313H20.241V56.1273C20.241 56.2713 20.185 56.3993 20.073 56.5113C19.977 56.6073 19.857 56.6553 19.713 56.6553C19.569 56.6553 19.441 56.6073 19.329 56.5113C19.233 56.3993 19.185 56.2713 19.185 56.1273V40.3833C19.185 40.2393 19.233 40.1193 19.329 40.0233C19.441 39.9113 19.569 39.8553 19.713 39.8553C19.857 39.8553 19.977 39.9113 20.073 40.0233C20.185 40.1193 20.241 40.2393 20.241 40.3833V46.5753H21.921C22.193 46.5753 22.425 46.4713 22.617 46.2633C22.825 46.0553 22.929 45.8073 22.929 45.5193V42.6393C22.929 42.4953 22.977 42.3753 23.073 42.2793C23.185 42.1673 23.313 42.1113 23.457 42.1113C23.601 42.1113 23.721 42.1673 23.817 42.2793C23.929 42.3753 23.985 42.4953 23.985 42.6393V45.5193C23.985 45.9833 23.809 46.3993 23.457 46.7673ZM41.5592 56.1273V59.2233C41.5592 59.3513 41.5112 59.4633 41.4152 59.5593C41.3192 59.6553 41.2072 59.7033 41.0792 59.7033C40.9512 59.7033 40.8392 59.6553 40.7432 59.5593C40.6472 59.4633 40.5992 59.3513 40.5992 59.2233V56.6553H33.5672V59.2233C33.5672 59.3513 33.5192 59.4633 33.4232 59.5593C33.3272 59.6553 33.2152 59.7033 33.0872 59.7033C32.9592 59.7033 32.8472 59.6553 32.7512 59.5593C32.6552 59.4633 32.6072 59.3513 32.6072 59.2233V56.1273C32.6072 55.9833 32.6552 55.8633 32.7512 55.7673C32.8632 55.6553 32.9912 55.5993 33.1352 55.5993H33.9272L38.9912 40.9113H36.1112C35.9032 40.9113 35.7272 40.9833 35.5832 41.1273C35.4392 41.2713 35.3672 41.4473 35.3672 41.6553C35.3672 41.8633 35.4392 42.0393 35.5832 42.1833C35.7272 42.3273 35.9032 42.3993 36.1112 42.3993C36.2552 42.3993 36.3752 42.4553 36.4712 42.5673C36.5832 42.6633 36.6392 42.7833 36.6392 42.9273C36.6392 43.0713 36.5832 43.1993 36.4712 43.3113C36.3752 43.4073 36.2552 43.4553 36.1112 43.4553C35.6152 43.4553 35.1912 43.2793 34.8392 42.9273C34.4872 42.5753 34.3112 42.1513 34.3112 41.6553C34.3112 41.1593 34.4872 40.7353 34.8392 40.3833C35.1912 40.0313 35.6152 39.8553 36.1112 39.8553H39.7112C39.8712 39.8553 40.0072 39.9193 40.1192 40.0473C40.2312 40.1593 40.2792 40.2953 40.2632 40.4553V55.5993H41.0312C41.1752 55.5993 41.2952 55.6553 41.3912 55.7673C41.5032 55.8633 41.5592 55.9833 41.5592 56.1273ZM39.2072 43.1193L35.0552 55.5993H39.2072V43.1193ZM44.3537 56.0553C44.9457 56.6153 45.6497 56.8953 46.4657 56.8953C47.2817 56.8953 47.9777 56.6153 48.5537 56.0553C49.1457 55.4793 49.4417 54.7913 49.4417 53.9913V42.5193C49.4417 41.7193 49.1457 41.0393 48.5537 40.4793C47.9777 39.9033 47.2817 39.6153 46.4657 39.6153C45.6497 39.6153 44.9457 39.9033 44.3537 40.4793C43.7777 41.0393 43.4897 41.7193 43.4897 42.5193V53.9913C43.4897 54.7913 43.7777 55.4793 44.3537 56.0553ZM45.0977 41.2233C45.4817 40.8553 45.9377 40.6713 46.4657 40.6713C46.9937 40.6713 47.4417 40.8553 47.8097 41.2233C48.1937 41.5753 48.3857 42.0073 48.3857 42.5193V53.9913C48.3857 54.5033 48.1937 54.9433 47.8097 55.3113C47.4417 55.6633 46.9937 55.8393 46.4657 55.8393C45.9377 55.8393 45.4817 55.6633 45.0977 55.3113C44.7297 54.9433 44.5457 54.5033 44.5457 53.9913V42.5193C44.5457 42.0073 44.7297 41.5753 45.0977 41.2233ZM55.56 43.9833L53.544 40.1193C53.448 39.9433 53.296 39.8553 53.088 39.8553C52.944 39.8553 52.816 39.9113 52.704 40.0233C52.608 40.1193 52.56 40.2393 52.56 40.3833V56.1273C52.56 56.2713 52.608 56.3993 52.704 56.5113C52.816 56.6073 52.944 56.6553 53.088 56.6553C53.232 56.6553 53.352 56.6073 53.448 56.5113C53.56 56.3993 53.616 56.2713 53.616 56.1273V46.7433L55.128 49.1433C55.208 49.2713 55.352 49.3353 55.56 49.3353C55.768 49.3353 55.912 49.2713 55.992 49.1433L57.504 46.7433V56.1273C57.504 56.2713 57.552 56.3993 57.648 56.5113C57.76 56.6073 57.888 56.6553 58.032 56.6553C58.176 56.6553 58.296 56.6073 58.392 56.5113C58.504 56.3993 58.56 56.2713 58.56 56.1273V40.3833C58.56 40.2393 58.504 40.1193 58.392 40.0233C58.296 39.9113 58.176 39.8553 58.032 39.8553C57.824 39.8553 57.672 39.9433 57.576 40.1193L55.56 43.9833ZM55.992 45.3753L57.504 42.5193V44.7753L55.56 47.8473L53.616 44.7753V42.5193L55.128 45.3753C55.192 45.5193 55.336 45.5913 55.56 45.5913C55.784 45.5913 55.928 45.5193 55.992 45.3753ZM62.5172 40.5033C63.0932 39.9113 63.7652 39.6153 64.5332 39.6153C65.3012 39.6153 65.9652 39.9113 66.5252 40.5033C67.1012 41.0953 67.3892 41.8073 67.3892 42.6393V56.1273C67.3892 56.2713 67.3332 56.3993 67.2212 56.5113C67.1252 56.6073 67.0052 56.6553 66.8612 56.6553C66.7172 56.6553 66.5892 56.6073 66.4772 56.5113C66.3812 56.3993 66.3332 56.2713 66.3332 56.1273V50.3433H62.7332V56.1273C62.7332 56.2713 62.6772 56.3993 62.5652 56.5113C62.4692 56.6073 62.3492 56.6553 62.2052 56.6553C62.0612 56.6553 61.9332 56.6073 61.8212 56.5113C61.7252 56.3993 61.6772 56.2713 61.6772 56.1273V42.6393C61.6772 41.8073 61.9572 41.0953 62.5172 40.5033ZM66.3332 47.3433V42.6393C66.3332 42.0793 66.1572 41.6153 65.8052 41.2473C65.4692 40.8633 65.0452 40.6713 64.5332 40.6713C64.0212 40.6713 63.5892 40.8633 63.2372 41.2473C62.9012 41.6153 62.7332 42.0793 62.7332 42.6393V47.3433H66.3332ZM66.3332 49.2873V48.3993H62.7332V49.2873H66.3332Z" fill="black"/>
<path d="M1.63477 1.20001L67.6348 1" stroke="#36A9E1" stroke-width="2" stroke-miterlimit="10"/>
<path d="M1.83472 31.6999L67.8347 31.3999" stroke="#36A9E1" stroke-width="2" stroke-miterlimit="10"/>
<path d="M16.5349 6.69995H15.2349V29.5999H16.5349V6.69995Z" fill="black"/>
<path d="M11.9556 19.8506V21.1506H34.8556V19.8506H11.9556Z" fill="black"/>
<path d="M34.0408 19.8357V21.1357H56.9408V19.8357H34.0408Z" fill="black"/>
<path d="M54.5349 16H53.2349V29.5H54.5349V16Z" fill="black"/>
<path d="M25.8348 20.4H18.1348C16.6348 20.4 15.4348 19.2 15.4348 17.7C15.4348 16.2 16.6348 15 18.1348 15H25.8348C27.3348 15 28.5348 16.2 28.5348 17.7C28.5348 19.2 27.3348 20.4 25.8348 20.4Z" fill="#A09A96"/>
<path d="M50.5349 25.6H30.7349C29.2349 25.6 28.0349 24.4 28.0349 22.9V19.2C28.0349 17.7 29.2349 16.5 30.7349 16.5H50.5349C52.0349 16.5 53.2349 17.7 53.2349 19.2V22.9C53.2349 24.4 52.0349 25.6 50.5349 25.6Z" fill="#03426A"/>
<path d="M38.1348 7.79993C40.7305 7.79993 42.8348 7.0388 42.8348 6.09991C42.8348 5.16103 40.7305 4.3999 38.1348 4.3999C35.5391 4.3999 33.4348 5.16103 33.4348 6.09991C33.4348 7.0388 35.5391 7.79993 38.1348 7.79993Z" fill="black"/>
<path d="M38.4349 6.19995C39.7604 6.19995 40.8349 5.52838 40.8349 4.69995C40.8349 3.87152 39.7604 3.19995 38.4349 3.19995C37.1094 3.19995 36.0349 3.87152 36.0349 4.69995C36.0349 5.52838 37.1094 6.19995 38.4349 6.19995Z" fill="black"/>
<path opacity="0.5" d="M38.4347 13.8999C43.1844 13.8999 47.0347 12.0643 47.0347 9.79996C47.0347 7.53559 43.1844 5.69995 38.4347 5.69995C33.6851 5.69995 29.8347 7.53559 29.8347 9.79996C29.8347 12.0643 33.6851 13.8999 38.4347 13.8999Z" fill="#FFED00"/>
</svg>
